<svg id="Icon-Link" xmlns="http://www.w3.org/2000/svg" width="16" height="16" viewBox="0 0 16 16">
  <rect id="Safe" width="16" height="16" fill="none"/>
  <g id="Icon" transform="translate(2.016 2.017)">
    <path id="Path_6893" data-name="Path 6893" d="M16.387,3.172a.491.491,0,0,0-.352-.147H12.8a.5.5,0,0,0-.393.769.494.494,0,0,0,.437.227h1.986L9.793,9.058a.5.5,0,0,0,.225.834.488.488,0,0,0,.127.017.5.5,0,0,0,.353-.145l5.038-5.038V6.71a.5.5,0,0,0,.143.357.512.512,0,0,0,.709,0,.5.5,0,0,0,.144-.355V3.523a.493.493,0,0,0-.146-.351" transform="translate(-5.232 -3.025)"/>
    <path id="Path_6894" data-name="Path 6894" d="M13.472,8.32a.5.5,0,0,0-.143.355v4.654H4.02V4.021H8.673a.5.5,0,0,0,.5-.5.493.493,0,0,0-.148-.354.528.528,0,0,0-.355-.144H3.47a.5.5,0,0,0-.446.5v10.3a.5.5,0,0,0,.146.352.5.5,0,0,0,.352.146h10.3a.493.493,0,0,0,.352-.146.5.5,0,0,0,.146-.352V8.677a.5.5,0,0,0-.143-.357.513.513,0,0,0-.709,0" transform="translate(-3.024 -3.025)"/>
  </g>
</svg>
